<?xml version="1.0" standalone="no"?>
<!DOCTYPE svg PUBLIC "-//W3C//DTD SVG 20010904//EN"
 "http://www.w3.org/TR/2001/REC-SVG-20010904/DTD/svg10.dtd">
<svg version="1.0" xmlns="http://www.w3.org/2000/svg"
 width="512.000000pt" height="512.000000pt" viewBox="0 0 512.000000 512.000000"
 preserveAspectRatio="xMidYMid meet">
<metadata>
Created by potrace 1.16, written by Peter Selinger 2001-2019
</metadata>
<g transform="translate(0.000000,512.000000) scale(0.100000,-0.100000)"
fill="#000000" stroke="none">
<path d="M2797 5033 c-190 -309 -612 -1023 -633 -1069 -95 -215 -74 -487 52
-697 49 -80 161 -192 241 -241 186 -112 399 -142 605 -85 215 60 410 233 493
437 73 180 73 395 1 574 -26 64 -685 1168 -698 1168 -4 0 -31 -39 -61 -87z
m263 -843 c101 -168 194 -329 208 -358 34 -74 41 -190 17 -277 -58 -215 -280
-362 -491 -327 -277 46 -449 331 -353 586 10 27 107 198 215 378 156 260 200
326 209 316 7 -7 94 -150 195 -318z"/>
<path d="M892 2909 c-255 -412 -476 -778 -493 -814 -61 -136 -81 -227 -86
-396 -7 -215 19 -343 107 -519 143 -285 421 -494 740 -556 90 -18 293 -20 381
-4 334 61 613 271 764 575 67 136 95 252 102 420 8 196 -22 345 -101 505 -32
64 -918 1504 -940 1527 -8 9 -124 -171 -474 -738z m802 -380 c180 -292 340
-559 353 -592 143 -352 -9 -759 -349 -937 -213 -111 -463 -111 -676 0 -148 77
-253 184 -329 334 -95 189 -100 428 -13 621 28 64 669 1105 679 1105 3 0 154
-239 335 -531z"/>
<path d="M3319 2358 c-239 -386 -451 -730 -471 -764 -50 -85 -103 -222 -124
-319 -21 -97 -24 -322 -5 -410 87 -417 373 -726 776 -837 92 -26 326 -35 432
-18 317 51 596 250 756 540 49 89 103 257 118 365 25 192 -9 419 -89 587 -32
68 -926 1525 -951 1551 -4 4 -203 -309 -442 -695z m763 -413 c174 -281 327
-533 341 -560 69 -138 93 -314 63 -464 -34 -167 -101 -290 -221 -406 -354
-344 -934 -247 -1165 195 -73 141 -102 302 -80 446 23 153 48 202 402 774 183
296 336 535 339 532 4 -4 148 -237 321 -517z"/>
</g>
</svg>
