<?xml version="1.0" standalone="no"?>
<!DOCTYPE svg PUBLIC "-//W3C//DTD SVG 20010904//EN"
 "http://www.w3.org/TR/2001/REC-SVG-20010904/DTD/svg10.dtd">
<svg version="1.0" xmlns="http://www.w3.org/2000/svg"
 width="512.000000pt" height="512.000000pt" viewBox="0 0 512.000000 512.000000"
 preserveAspectRatio="xMidYMid meet">
<metadata>
Created by potrace 1.16, written by Peter Selinger 2001-2019
</metadata>
<g transform="translate(0.000000,512.000000) scale(0.100000,-0.100000)"
fill="#000000" stroke="none">
<path d="M2410 5114 c-368 -73 -649 -365 -700 -729 -6 -42 -10 -482 -10 -1109
l0 -1038 -76 -81 c-171 -182 -286 -411 -329 -654 -19 -114 -19 -332 0 -446 69
-392 321 -734 677 -917 189 -98 366 -140 588 -140 224 0 403 43 595 143 354
186 601 523 670 914 19 114 19 332 0 446 -43 243 -158 472 -329 654 l-76 81 0
1038 c0 627 -4 1067 -10 1109 -47 330 -280 602 -605 705 -56 18 -99 23 -220
25 -82 2 -161 1 -175 -1z m214 -434 c138 -22 251 -109 315 -240 l36 -75 3
-1161 2 -1161 110 -102 c125 -117 184 -193 239 -313 55 -117 76 -218 75 -358
-4 -384 -259 -709 -639 -811 -113 -31 -297 -31 -410 0 -380 102 -635 427 -639
811 -1 140 20 241 75 358 55 120 114 196 239 313 l110 102 2 1161 3 1161 36
75 c71 147 204 236 369 249 8 0 41 -3 74 -9z"/>
<path d="M2339 2653 l0 -768 -82 -39 c-118 -57 -210 -151 -270 -277 -54 -111
-67 -169 -67 -289 0 -120 13 -178 67 -289 63 -131 153 -221 284 -284 111 -54
169 -67 289 -67 120 0 178 13 289 67 131 63 221 153 284 284 54 111 67 169 67
289 0 120 -13 178 -67 289 -60 126 -152 220 -270 277 l-82 39 0 768 -1 767
-220 0 -220 0 -1 -767z"/>
</g>
</svg>
