<?xml version="1.0" standalone="no"?>
<!DOCTYPE svg PUBLIC "-//W3C//DTD SVG 20010904//EN"
 "http://www.w3.org/TR/2001/REC-SVG-20010904/DTD/svg10.dtd">
<svg version="1.0" xmlns="http://www.w3.org/2000/svg"
 width="512.000000pt" height="512.000000pt" viewBox="0 0 512.000000 512.000000"
 preserveAspectRatio="xMidYMid meet">
<metadata>
Created by potrace 1.16, written by Peter Selinger 2001-2019
</metadata>
<g transform="translate(0.000000,512.000000) scale(0.100000,-0.100000)"
fill="#000000" stroke="none">
<path d="M2005 4904 c-192 -31 -397 -145 -515 -286 -124 -148 -189 -313 -198
-495 l-5 -113 215 0 214 0 10 84 c20 157 102 277 234 340 60 29 73 31 170 31
97 0 110 -2 171 -31 121 -58 209 -174 231 -308 38 -227 -121 -449 -347 -486
-36 -6 -403 -10 -912 -10 l-853 0 0 -215 0 -215 900 0 c783 0 911 2 978 16
249 51 468 220 587 454 117 231 119 528 5 765 -105 219 -295 378 -532 445 -72
21 -282 35 -353 24z"/>
<path d="M4145 4049 c-313 -45 -585 -268 -686 -562 -29 -85 -49 -185 -49 -249
l0 -38 219 0 219 0 4 55 c7 79 65 191 130 250 61 54 101 77 183 100 179 52
394 -48 477 -221 102 -217 16 -457 -202 -563 l-75 -36 -1542 -3 -1543 -2 0
-220 0 -220 1518 0 c941 0 1544 4 1587 10 332 47 602 280 706 610 21 66 24 94
24 240 0 146 -3 174 -24 240 -131 416 -525 670 -946 609z"/>
<path d="M0 2560 l0 -220 430 0 430 0 0 220 0 220 -430 0 -430 0 0 -220z"/>
<path d="M850 1705 l0 -215 1278 0 c781 0 1300 -4 1336 -10 276 -45 434 -354
311 -607 -57 -115 -192 -211 -312 -221 l-53 -4 0 -221 0 -220 78 6 c398 31
720 348 761 751 12 115 0 251 -30 351 -89 295 -342 528 -641 589 -68 14 -232
16 -1403 16 l-1325 0 0 -215z"/>
</g>
</svg>
